<?xml version="1.0" encoding="iso-8859-1"?>
<!-- Generator: Adobe Illustrator 16.0.0, SVG Export Plug-In . SVG Version: 6.00 Build 0)  -->
<!DOCTYPE svg PUBLIC "-//W3C//DTD SVG 1.1//EN" "http://www.w3.org/Graphics/SVG/1.1/DTD/svg11.dtd">
<svg version="1.1" id="Capa_1" xmlns="http://www.w3.org/2000/svg" xmlns:xlink="http://www.w3.org/1999/xlink" x="0px" y="0px"
	 width="562.021px" height="562.021px" viewBox="0 0 562.021 562.021" style="enable-background:new 0 0 562.021 562.021;"
	 xml:space="preserve">
<g>
	<g>
		<path d="M378.63,221.21c32.963,23.848,79.038,57.227,80.906,98.377c1.869,41.15-33.292,39.629-33.292,39.629
			c-2.322-1.823-4.803-3.447-7.177-5.206c-0.914-0.673-1.734-1.469-2.33-2.644c2.896,1.518,5.79,3.039,8.687,4.557
			c0.184-0.22,0.371-0.44,0.555-0.66c-0.298-0.678-0.6-1.359-0.881-1.995c1.599,0.13,3.219,0.261,4.839,0.396
			c0.081-0.236,0.159-0.478,0.24-0.714c-0.489-0.412-0.955-1.146-1.477-1.188c-3.329-0.253-5.015-3.076-7.467-4.667
			c-3.517-2.277-6.871-4.807-10.29-7.234c-0.534-0.38-1.04-0.8-1.559-1.199c0.103-0.192,0.2-0.388,0.303-0.58
			c3.101,1.335,6.197,2.665,9.298,3.999c0.176-0.322,0.347-0.641,0.522-0.963c-0.869-0.648-1.693-1.375-2.619-1.934
			c-4.725-2.856-9.499-5.635-14.199-8.527c-1.297-0.796-2.407-1.897-3.599-2.856c0.106-0.159,0.217-0.322,0.323-0.481
			c5.487,3.265,10.975,6.532,16.462,9.796c0.27-0.289,0.539-0.579,0.809-0.869c-0.453-0.615-0.784-1.403-1.38-1.823
			c-7.226-5.133-14.508-10.188-21.733-15.32c-1.44-1.024-2.705-2.302-3.852-3.692c3.088,1.942,6.124,3.97,9.277,5.802
			c3.138,1.819,5.753,4.577,9.479,5.41c-7.062-8.009-16.3-13.399-23.921-20.747c6.891,4.402,13.781,8.805,20.673,13.207
			c0.257-0.322,0.514-0.645,0.771-0.967c-0.743-0.743-1.412-1.575-2.236-2.212c-5.977-4.61-11.991-9.18-17.984-13.773
			c-0.669-0.515-1.281-1.106-1.918-1.661c0.114-0.167,0.229-0.338,0.343-0.506c4.525,3.052,9.046,6.104,13.57,9.151
			c0.232-0.24,0.461-0.477,0.693-0.718c-0.624-0.723-1.162-1.555-1.889-2.15c-7.34-6.026-14.704-12.023-22.085-18.001
			c-0.629-0.506-1.416-0.815-2.13-1.216c0.289-0.306,0.575-0.611,0.865-0.918c5.345,3.681,10.347,7.915,16.246,10.702
			c0.18-0.2,0.359-0.4,0.539-0.6c-0.734-0.768-1.396-1.628-2.216-2.285c-6.675-5.356-13.383-10.677-20.069-16.018
			c-0.6-0.478-1.146-1.021-1.538-1.787c5.851,3.7,11.701,7.405,18.037,11.411c-0.383-2.289-8.017-9.103-12.893-12.945
			c1.611,0.75,3.252,1.448,4.831,2.26c1.514,0.775,2.97,1.661,4.451,2.501c0.204-0.269,0.408-0.538,0.611-0.804
			c-0.546-0.607-1.003-1.346-1.656-1.803c-4.965-3.48-10.032-6.822-14.944-10.38c-3.016-2.187-5.814-4.671-8.507-7.397
			c1.22,0.657,2.496,1.224,3.647,1.987c5.189,3.436,10.33,6.944,15.52,10.38c0.576,0.379,1.343,0.465,2.024,0.685
			c0.09-0.2,0.18-0.404,0.269-0.604c-7.597-6.655-15.193-13.309-22.79-19.963c0.126-0.167,0.248-0.339,0.375-0.506
			c3.599,2.412,7.193,4.827,10.792,7.238c0.229-0.225,0.456-0.449,0.685-0.673c-0.481-0.763-0.885-1.587-1.456-2.277
			c-4.594-5.52-10.485-9.49-16.308-13.537c-1.396-0.971-2.791-1.942-4.187-2.909c0.106-0.175,0.217-0.351,0.326-0.526
			c5.762,3.55,11.526,7.099,17.292,10.645c0.188-0.29,0.375-0.58,0.562-0.869c-6.732-6.238-14.684-10.898-21.897-16.663
			c4.048,1.787,8.099,3.579,12.146,5.365c0.191-0.281,0.388-0.559,0.579-0.84c-0.693-0.641-1.285-1.518-2.105-1.889
			c-5.875-2.644-11.791-5.189-17.703-7.756c-0.845-0.367-1.718-0.665-2.578-0.992c0.065-0.208,0.126-0.416,0.191-0.62
			c5.215,1.681,10.433,3.358,15.646,5.039c0.131-0.331,0.258-0.657,0.388-0.987c-7.915-4.17-16.193-7.589-24.312-11.485
			c5.268,1.473,10.535,2.946,15.802,4.418c0.082-0.33,0.168-0.661,0.249-0.991c-7.07-4.329-15.104-5.353-23.138-6.724
			c4.271,0.302,8.544,0.604,12.815,0.901c0.077-0.269,0.159-0.539,0.236-0.808c-0.632-0.314-1.236-0.796-1.905-0.918
			c-5.043-0.947-10.102-1.816-15.148-2.726c-0.747-0.135-1.474-0.359-2.146-0.983c4.423,0.416,8.846,0.836,13.269,1.252
			c0.049-0.298,0.098-0.595,0.146-0.893c-3.312-2.273-7.438-1.783-11.13-2.713c-3.75-0.942-7.638-1.498-11.498-1.787
			c-3.929-0.298-7.898-0.065-11.853-0.065c-0.012-0.334-0.02-0.673-0.032-1.008c6.512-0.228,13.023-0.457,19.531-0.685
			c0.004-0.286,0.012-0.567,0.016-0.853c-5.169-1.693-10.607-1.199-15.937-1.403c-5.324-0.204-10.661-0.045-16.046-0.441
			c2.354-0.241,4.7-0.551,7.059-0.706c2.02-0.135,4.055-0.012,6.07-0.171c0.738-0.057,1.437-0.596,2.15-0.914
			c-0.665-0.351-1.343-1.028-1.991-1c-4.811,0.216-9.641,0.343-14.41,0.938c-5.537,0.693-11.016,1.836-16.52,2.783
			c-0.053-0.27-0.11-0.535-0.163-0.804c6.826-1.358,13.656-2.717,20.481-4.076c-0.061-0.31-0.126-0.62-0.188-0.93
			c-7.188-0.306-14.117,1.848-21.249,2.362c1.269-0.225,2.554-0.392,3.807-0.694c1.22-0.293,2.407-0.726,3.607-1.097
			c-0.041-0.31-0.082-0.621-0.123-0.93c-0.983,0-2.003-0.176-2.938,0.028c-4.773,1.044-9.531,2.17-14.284,3.305
			c-3.452,0.824-6.891,1.702-10.437,2.338c1.64-0.73,3.284-1.46,4.929-2.187c-0.106-0.261-0.208-0.518-0.314-0.779
			c-7.772,0.351-14.055,5.268-21.367,7.169c1.917-0.988,3.843-1.962,5.753-2.966c1.913-1.004,3.807-2.036,5.712-3.056
			c-0.167-0.351-0.334-0.702-0.498-1.057c-7.731,2.681-15.234,5.981-22.982,8.891c0.542-0.392,1.069-0.816,1.636-1.167
			c0.657-0.412,1.432-0.669,2.007-1.167c0.461-0.4,0.702-1.057,0.804-1.791c-6.483,1.95-10.481,7.613-16.504,10.151
			c1.404-1.273,2.812-2.546,4.215-3.819c-0.155-0.224-0.314-0.453-0.469-0.677c-0.836,0.412-1.799,0.669-2.489,1.257
			c-4.394,3.725-8.719,7.531-13.084,11.289c-1.041,0.898-2.142,1.722-3.215,2.583c-0.191-0.192-0.383-0.388-0.579-0.583
			c2.289-2.26,4.578-4.521,6.867-6.781c-0.233-0.253-0.461-0.502-0.694-0.755c-4.431,1.865-7.12,6.132-11.048,8.744
			c-0.123-0.245-0.261-0.388-0.237-0.498c0.159-0.747,0.355-1.481,0.539-2.223c-0.71,0.444-1.661,0.722-2.093,1.354
			c-2.097,3.084-4.268,6.063-7.633,7.98c1.616-1.905,3.231-3.811,4.847-5.716c-0.273-0.281-0.546-0.567-0.824-0.849
			c-3.746,3.101-7.491,6.202-11.236,9.303c-0.123-0.102-0.241-0.204-0.359-0.302c0.8-1.069,1.6-2.134,2.399-3.203
			c-0.179-0.212-0.363-0.42-0.546-0.632c-1.44,1.032-2.938,1.999-4.309,3.117c-2.167,1.763-4.178,3.729-6.418,5.394
			c-0.771,0.575-2.044,0.433-3.056,0.738c-0.861,0.261-1.685,0.661-2.509,1.044c-3.505,1.632-6.997,3.293-10.502,4.921
			c-0.416,0.196-0.983,0.494-1.326,0.359c-4.517-1.775-8.959,0.775-13.452,0.179c-0.759-0.102-1.546-0.012-2.473-0.012
			c0.119-0.489,0.212-0.869,0.359-1.473c-1.024,0-1.942,0.085-2.836-0.016c-2.337-0.27-4.659-0.755-7.001-0.898
			c-2.632-0.159-5.275-0.037-8.172-0.037c0.739-2.118-0.265-2.264-1.779-2.023c-1.673,0.269-3.366,0.396-5.1,0.587
			c0-0.755,0-1.228,0-1.897c-2.211,0.282-4.28,0.547-6.605,0.845c0.669-1.832-0.302-1.84-1.648-1.808
			c-5.206,0.126-10.416,0.131-15.626,0.188c-0.31,0.004-0.632,0.012-0.926,0.098c-4.357,1.297-8.915,2.154-13.023,4.011
			c-10.661,4.818-21.253,9.825-31.608,15.251c-6.369,3.342-12.44,7.34-18.315,11.514c-5.961,4.235-5.439,5.606-1.95,11.894
			c2.685,4.839,5.72,8.707,10.347,11.767c2.591,1.714,4.248,4.847,6.308,7.353c2.073,2.521,4.729,4.01,7.948,4.442
			c4.549,0.612,9.095,1.245,13.656,1.714c1.539,0.159,2.126,0.922,2.501,2.244c0.498,1.763,1.114,3.496,1.677,5.243
			c0.322-0.065,0.641-0.131,0.963-0.196c0.041-0.693,0.159-1.396,0.106-2.081c-0.053-0.673-0.282-1.33-0.506-2.317
			c3.705,1.808,2.04,7.034,6.336,8.638c-0.269-2.428-0.489-4.378-0.763-6.817c2.864,2.745,3.003,6.699,5.438,9.094
			c0.282-0.114,0.563-0.229,0.845-0.339c-0.212-1.971-0.424-3.945-0.637-5.916c0.245-0.064,0.486-0.13,0.73-0.199
			c1.188,3.088,2.375,6.177,3.721,9.673c0.563-1.089,0.889-1.713,1.419-2.741c0.273,1.901,0.417,3.423,0.751,4.9
			c0.106,0.477,0.718,0.84,1.098,1.252c0.257-0.502,0.75-1.008,0.734-1.501c-0.062-1.894-0.282-3.786-0.498-6.283
			c1.804,4.125,3.35,7.654,4.892,11.183c0.265-0.077,0.535-0.159,0.8-0.236c0.383-4.296-1.677-8.241-2.346-12.391
			c0.204-0.058,0.404-0.11,0.608-0.167c1.432,4.822,2.864,9.641,4.48,15.087c1.587-2.443,1.085-4.483,0.783-6.43
			c-0.306-1.967-0.84-3.896-1.277-5.839c0.229-0.069,0.457-0.139,0.686-0.208c1.677,5.451,3.357,10.902,5.035,16.353
			c0.387-0.085,0.775-0.171,1.159-0.253c-0.571-4.479-1.146-8.959-1.718-13.439c0.167-0.028,0.338-0.057,0.506-0.085
			c0.706,3.827,1.412,7.658,2.113,11.484c0.237-0.036,0.469-0.073,0.706-0.113c1.195-3.726-0.225-7.32-0.653-10.988
			c2.624,3.975,3.203,8.312,1.828,13.04c2.652-0.722,3.285-1.819,3.138-5.251c-0.094-2.228-0.31-4.447-0.469-6.671
			c0.196-0.053,0.392-0.106,0.592-0.159c1.208,5.019,2.419,10.033,3.627,15.051c0.294-0.032,0.592-0.064,0.885-0.102
			c0.131-2.231,0.257-4.459,0.388-6.691c0.298-0.016,0.596-0.032,0.894-0.049c0.208,2.281,0.367,4.569,0.649,6.842
			c0.126,1.037,0.489,2.04,0.742,3.061c0.522-0.935,1.285-1.815,1.51-2.815c0.404-1.803,0.481-3.676,0.73-5.813
			c1.554,4.504,0.033,9.429,2.415,13.672c1.975-3.19,0.359-6.957,2.211-10.273c0.747,4.77,1.489,9.535,2.33,14.904
			c3.007-3.195,0.967-7.111,2.509-10.327c1.783,4.758,0.947,9.662,1.591,14.473c2.02-1.539,1.775-3.705,1.84-5.741
			c0.065-2.13,0.017-4.26,0.017-6.389c0.298-0.005,0.592-0.009,0.89-0.017c0.33,3.704,0.661,7.413,0.991,11.118
			c0.216,0.057,0.433,0.114,0.649,0.167c0.714-1.008,1.432-2.02,2.146-3.027c-0.171-0.004-0.343-0.008-0.514-0.013
			c-0.396-2.623-0.792-5.251-1.183-7.874c0.253-0.045,0.506-0.094,0.759-0.139c0.767,3.994,1.534,7.984,2.326,12.081
			c0.331-0.229,0.787-0.551,1.53-1.069c-0.894,7.52-0.159,15.007-3.378,22.379c-2.852,0.673-6.071,1.493-9.319,2.195
			c-6.385,1.375-11.648,8.939-10.51,15.292c0.151,0.845,0.718,1.619,1.089,2.423c0.788-0.518,1.62-0.979,2.338-1.574
			c0.453-0.376,0.738-0.955,1.146-1.502c0.906,2.64,1.758,5.129,2.771,8.087c2.032-2.321,3.549-4.056,5.349-6.112
			c0.322,1.641,0.457,2.926,0.857,4.125c0.212,0.633,0.885,1.11,1.346,1.661c0.404-0.551,0.91-1.057,1.196-1.665
			c0.624-1.31,0.971-2.782,1.742-3.99c0.808-1.269,2.093-1.518,3.696-1.24c1.13,0.196,2.517-0.191,3.586-0.727
			c1.481-0.738,2.766-1.86,4.182-2.852c0.216,0.547,0.347,0.877,0.698,1.763c0.996-1.191,1.706-2.117,2.493-2.967
			c1.901-2.056,3.839-4.079,5.834-6.193c0.702,1.131,1.558,1.045,2.158-0.387c0.371,0.184,0.604,0.253,0.783,0.392
			c1.942,1.501,3.631,2.142,5.7-0.164c0.935-1.04,2.893-1.452,4.439-1.595c2.783-0.257,5.602-0.103,8.409-0.106
			c2.252-0.004,4.48-0.04,4.978-3.402c1.848,1.216,3.427,2.252,5.006,3.288c0.188-0.216,0.375-0.437,0.563-0.652
			c-0.469-0.832-0.938-1.665-1.714-3.04c1.375,0.245,2.521,0.151,3.289,0.645c2.154,1.392,3.705,0.841,5.239-0.963
			c0.338-0.399,1.249-0.388,1.905-0.42c1.195-0.062,2.395-0.017,3.88-0.017c-0.384-1.334-0.633-2.199-1-3.484
			c6.688,3.109,11.236-0.184,15.382-4.732c0.775,0.449,1.542,0.894,2.848,1.648c-0.379-1.094-0.559-1.616-0.779-2.248
			c0.339,0.041,0.649,0.012,0.902,0.118c2.317,0.987,4.606,1.938,7.111,0.474c0.404-0.237,1.069-0.114,1.595-0.037
			c3.603,0.522,7.185,1.244,10.804,1.497c0.91,0.065,1.921-1.346,3.366-2.443c0.143,0.061,0.902,0.347,1.628,0.701
			c2.195,1.073,4.37,1.995,6.92,1.09c0.632-0.225,1.53,0.077,2.24,0.326c1.346,0.474,2.558,0.987,3.917-0.163
			c0.416-0.351,1.489-0.139,2.17,0.082c1.55,0.501,3.015,1.26,4.574,1.737c1.032,0.318,2.33,1.375,3.097-0.583
			c0.082-0.212,1.534-0.212,2.073,0.131c5.202,3.305,11.048,3.614,16.948,4.071c4.092,0.314,8.131,1.289,12.199,1.93
			c1.036,0.163,2.407,0.6,1.779-1.489c1.795,0.502,3.407,1.09,5.067,1.354c0.686,0.11,1.481-0.477,2.228-0.746
			c-0.396-0.604-0.653-1.42-1.208-1.771c-2.554-1.612-5.19-3.097-7.744-4.835c5.949,2.741,12.077,4.811,18.69,5.23
			c-4.639-3.603-10.763-3.896-15.537-7.173c8.099,1.934,15.679,5.736,23.95,7.001c0.106-0.22,0.212-0.44,0.318-0.665
			c-0.571-0.42-1.122-0.864-1.714-1.252c-0.571-0.376-1.179-0.686-1.664-1.367c5.21,0.812,10.424,1.624,15.618,2.436
			c0.073,4.166-0.991,5.708-4.811,5.908c-6.817,0.359-13.66,0.641-20.481,0.489c-4.464-0.098-7.038,2.253-9.437,5.395
			c-0.914,1.191-2.077,2.19-3.129,3.28c-0.053,0.057-0.131,0.09-0.18,0.146c-1.053,1.269-2.876,2.501-1.738,4.26
			c0.375,0.583,2.562-0.009,4.407-0.078c-0.232,0.979-0.526,2.481-0.947,3.946c-0.551,1.934-1.261,3.822-1.771,5.769
			c-0.131,0.502,0.053,1.396,0.404,1.628c0.372,0.245,1.383,0.135,1.669-0.2c2.179-2.537,5.663-1.366,8.208-2.913
			c0.298-0.179,1.918,0.959,2.175,1.734c0.869,2.595,2.554,4.97,2.154,7.988c-0.09,0.689,1.045,2.15,1.665,2.179
			c0.954,0.045,2.366-0.579,2.868-1.37c3.104-4.917,8.478-6.798,12.966-10.037c-1.819,3.655-0.689,6.965,1.028,10.918
			c1.399-1.281,2.632-2.24,3.655-3.378c2.738-3.044,5.402-6.161,8.074-9.266c1.551-1.804,3.387-3.46,4.525-5.5
			c3.28-5.888,6.271-11.938,9.384-17.924c0.249-0.481,0.534-0.95,0.849-1.391c1.591-2.22,2.15-2.293,4.301-0.665
			c0.93,0.705,1.889,1.366,2.835,2.052c0.184-0.163,0.371-0.326,0.555-0.485c-0.232-0.641-0.461-1.285-0.954-2.648
			c1.872,1.028,3.174,2.012,4.643,2.465c1.049,0.322,2.493,0.27,3.439-0.229c1.273-0.669,1.959-0.425,2.778,0.522
			c0.918,1.057,1.836,2.146,2.909,3.031c0.637,0.526,1.571,0.686,2.375,1.008c0.155-0.208,0.31-0.416,0.469-0.629
			c-1.709-3.031-3.419-6.062-5.128-9.094c4.729,3.68,6.507,10.265,13.614,11.473c-1.473-2.395-2.949-4.79-4.423-7.181
			c0.27-0.172,0.543-0.343,0.812-0.515c1.366,1.951,2.754,3.889,4.101,5.852c1.203,1.754,2.542,3.06,4.974,2.774
			c0.722-0.086,1.697,0.62,2.309,1.216c1.522,1.484,2.967,2.782,5.292,3.092c1.053,0.139,1.656,2.064,2.872,2.489
			c83.109,29.001,253.544-12.868,148.337-168.573S345.668,197.366,378.63,221.21z M414.697,345.438
			c2.885,1.755,5.77,3.509,8.653,5.264c-0.146,0.245-0.298,0.489-0.444,0.734c-3.198-1.253-6.148-2.926-8.568-5.487
			C414.457,345.776,414.579,345.609,414.697,345.438z"/>
	</g>
</g>
<g>
</g>
<g>
</g>
<g>
</g>
<g>
</g>
<g>
</g>
<g>
</g>
<g>
</g>
<g>
</g>
<g>
</g>
<g>
</g>
<g>
</g>
<g>
</g>
<g>
</g>
<g>
</g>
<g>
</g>
</svg>
